<svg viewBox="0 0 900 600" xmlns="http://www.w3.org/2000/svg"><path d="m0 364 21.5 5.7c21.5 5.6 64.5 17 107.3 19.5 42.9 2.5 85.5-3.9 128.4-9.9 42.8-6 85.8-11.6 128.6-2.6 42.9 9 85.5 32.6 128.4 45 42.8 12.3 85.8 13.3 128.6.1 42.9-13.1 85.5-40.5 128.4-45 42.8-4.5 85.8 13.9 107.3 23L900 409v192H0Z" fill="#fdd600"/><path d="M0 466h21.5c21.5 0 64.5 0 107.3.7 42.9.6 85.5 2 128.4 3.3 42.8 1.3 85.8 2.7 128.6-2.5 42.9-5.2 85.5-16.8 128.4-30.2C557 424 600 409 642.8 410.7c42.9 1.6 85.5 20 128.4 33.1C814 457 857 465 878.5 469l21.5 4v128H0Z" fill="#ffad3b"/><path d="m0 466 21.5.7c21.5.6 64.5 2 107.3 1 42.9-1 85.5-4.4 128.4-9.5C300 453 343 446 385.8 453.3c42.9 7.4 85.5 29 128.4 38.9 42.8 9.8 85.8 7.8 128.6 6.5 42.9-1.4 85.5-2 128.4-10.2 42.8-8.2 85.8-23.8 107.3-31.7L900 449v152H0Z" fill="#ff8b5d"/><path d="m0 518 21.5-4.8c21.5-4.9 64.5-14.5 107.3-19.5 42.9-5 85.5-5.4 128.4-2.7 42.8 2.7 85.8 8.3 128.6 15.3 42.9 7 85.5 15.4 128.4 15.9 42.8.5 85.8-6.9 128.6-8 42.9-1.2 85.5 3.8 128.4 5.8 42.8 2 85.8 1 107.3.5l21.5-.5v81H0Z" fill="#ff737f"/><path d="m0 542 21.5-2.5C43 537 86 532 128.8 530.7c42.9-1.4 85.5 1 128.4 6.5 42.8 5.5 85.8 14.1 128.6 19.6 42.9 5.5 85.5 7.9 128.4 2.9 42.8-5 85.8-17.4 128.6-20.7 42.9-3.3 85.5 2.3 128.4 2 42.8-.3 85.8-6.7 107.3-9.8L900 528v73H0Z" fill="#ff66a9"/></svg>